<?xml version="1.0" encoding="UTF-8"?>
<svg id="Layer_2" data-name="Layer 2" xmlns="http://www.w3.org/2000/svg" viewBox="0 0 802.79 197.05">
  <defs>
    <style>
      .cls-1 {
        fill: #ff151f;
      }

      .cls-2 {
        fill: #fff;
      }

      .cls-3 {
        fill: #1d2269;
      }
    </style>
  </defs>
  <g id="Layer_1-2" data-name="Layer 1">
    <path class="cls-2" d="m800.64,93.12c-1.15-2.31-2.65-4.31-4.4-5.94,2.59-5.14,3.81-11.04,3.37-17.27-.55-7.76-3.59-14.57-8.8-19.71-4.09-4.03-9.49-6.99-16.04-8.79-4.78-1.32-9.69-1.98-14.58-1.98-13.41,0-25.92,4.9-35.57,13.47-2.48-6.65-8.42-12.2-18.62-13.55-2.03-.27-4.09-.4-6.14-.4-1.8,0-3.59.11-5.33.31-20.02,2.4-35.38,12.75-44.82,30.06-.3-.35-.61-.69-.91-1.02.13-.5.24-1.01.33-1.53,2.05-11.04-3.27-20.78-13.86-25.42-5.75-2.51-11.2-2.71-14.81-2.85-.96-.04-1.87-.07-2.43-.13-.62-.07-1.24-.11-1.86-.11h0c-7.96,0-15.7,1.34-22.85,3.77,1.33-1.74,2.45-3.72,3.33-5.93,3.95-9.93,2.43-24.09-14.83-31.34-9.96-4.18-19.74-4.67-26.23-4.67-3.03,0-6.02.12-8.54.24-11.09.51-27.13,2.48-38.44,13.56-11.35,11.13-13.54,27.11-14.19,38.17-.16,2.68-.12,5.22-.08,7.46.01.88.03,1.76.03,2.64,0,.18,0,.36,0,.53.59,17.69,2.56,33.75,5.99,48.76h-23.94c1.38-2.71,2.58-5.53,3.55-8.48.05-.16.1-.32.15-.48,1.65-5.57,2.54-11.65,2.66-18.07,0-.3,0-.6,0-.9v-.22c-.16-3.98-.34-8.5-1.47-13.4-.11-.47-.24-1-.4-1.59-.13-.52-.28-1.05-.46-1.58-.1-.35-.21-.71-.33-1.08-.27-.89-.55-1.65-.76-2.22l-.06-.15c-.33-.92-.67-1.74-.94-2.41l-.11-.26c-.04-.09-.07-.18-.11-.27-9.45-21.88-31.13-36.38-55.23-36.96-.13,0-.25,0-.38,0-.04,0-.08,0-.12,0-12.95.1-25.44,4.28-36.14,11.96-1.85-3.65-4.72-6.8-8.47-8.97-3.38-1.96-7.22-2.99-11.11-2.99-8.38,0-15.95,4.64-19.74,12.11-.72,1.41-2.96,5.95-5.38,12.23-6,1.25-10.34,2.23-11.7,2.53-11.91,2.69-19.41,14.57-16.72,26.47,2.27,10.06,10.99,17.12,21.26,17.26.98,6.5,3.06,12.33,6.19,17.48h-39.3c.04-.07.08-.12.12-.19,3.55-6.1,3.41-13.41-.37-19.58-1-1.63-2.2-3.07-3.56-4.31,2.53-5.11,3.7-11.03,3.31-17.44-.83-13.74-9.44-24.05-23.61-28.28-5.03-1.5-10.2-2.27-15.37-2.27-13.17,0-25.43,4.83-34.93,13.3-2.67-7.26-9.23-13.63-21.47-13.63-.64,0-1.28.01-1.91.03-.23,0-.46.01-.69.02-22.2.37-39.25,10.71-49.74,30.02-.19-.22-.39-.43-.59-.64.17-.67.32-1.37.44-2.07,2.11-12.31-4.99-23.09-17.25-26.2-4.07-1.03-8.56-1.65-13.74-1.88-.94-.04-1.9-.06-2.85-.06h0c-7.11,0-14.28,1.22-21.07,3.54,1.28-1.69,2.37-3.6,3.23-5.72,4.29-10.58,1.72-24.28-13.68-31.06C79.8,1.59,71.42,0,61.18,0h0c-1.38,0-2.78.03-4.26.08-.75-.05-1.52-.07-2.31-.07-5.58,0-11.58,1.09-18.87,2.72C17.51,6.82,5.67,18.62,2.4,35.95c-5.83,30.92-.08,60.84,7,88.56,2.69,10.55,11.35,17.37,22.04,17.37,2.05,0,4.15-.26,6.25-.77,12.18-2.98,19.56-12.66,18.8-24.66-.24-3.75-.87-7.73-1.87-11.83-.84-3.43-1.75-6.8-2.63-10.07-.44-1.64-.87-3.24-1.29-4.81,2.8-.1,5.58-.21,8.34-.34-.19,8.9,2.43,17.42,7.68,24.39,7.34,9.76,18.96,15.35,31.89,15.36,8.89,0,15.89-2.67,21.61-6.44-1.04,2.07-1.77,4.36-2.13,6.84-.24,1.63-.57,3.47-.87,5.1-.88,4.86-1.88,10.36-1.78,16.34.11,6.95,1.15,17.03,8.83,24.25,7.27,6.83,16.88,7.77,24.44,7.82.04,0,.07,0,.11,0,.09,0,.19,0,.27,0h.1s.06,0,.09,0c.35,0,.72.02,1.08.02,1.12,0,2.16-.07,3.17-.21.25-.03.51-.04.78-.06h.05c2.18-.17,6.24-.49,10.31-2.47.59.2,1.19.39,1.8.55,4.41,1.21,8.85,1.83,13.19,1.83,6.57,0,13-1.39,19.17-4.13,4.76,2.37,9.09,2.98,12.29,2.98,3.77,0,8.84-.84,14.31-4.09,3.91,2.08,7.61,2.52,10.06,2.52,3.97,0,9.72-1.14,15.73-6.2,2.44,2.66,5.57,4.66,9.21,5.81,3.75,1.19,7.43,1.8,10.95,1.8,6,0,11.74-1.78,16.58-5.14.72-.5,1.39-1.02,2-1.56,3.78,3.25,8.05,4.89,12.75,4.89s8.1-1.4,11.41-3.68c3.42,3.19,7.93,5.03,12.91,5.03.79,0,1.59-.05,2.38-.14,2.17-.26,4.19-.87,6.03-1.75,3.29,1.41,6.75,2.15,10.22,2.15,6.4,0,12.47-2.4,17.6-6.94,3.61,3.74,8.43,6.82,15.03,6.82,5.56,0,9.99-2.3,13.5-5.2,4.73,3.96,9.75,5.24,13.51,5.56.89,4.13,3.51,9.53,10.86,12.91,3.9,1.79,8.18,2.7,12.72,2.7,7.99,0,16.48-2.95,23.28-8.1,5.3-4.01,9.18-8.96,11.4-14.41,2.38,1.94,5.1,3.56,8.11,4.79,4.29,1.76,8.72,2.65,13.16,2.65,5.94,0,11.76-1.57,17.37-4.68,5.87,2.83,11.23,4.58,16.84,4.58,7.71,0,13.59-3.21,18.22-7.47,3.52,3.61,8.16,5.72,13.29,5.99.37.02.74.03,1.09.03,4.59,0,8.18-1.4,10.96-3.26,3.35,2.56,7.39,3.78,11.27,3.78,1.07,0,2.15-.09,3.23-.26,2.59-.42,5.17-1.38,7.49-2.89,3.48,1.42,7.27,2.2,11.17,2.2,4.21,0,8.26-.96,11.89-2.73.84.3,1.71.58,2.62.83,3.9,1.07,7.72,1.61,11.35,1.61,8.36,0,15.78-2.68,22.19-7.99,3.07,3.16,7.15,5.23,11.8,5.89,1.91.27,4.15.56,6.66.56,5.67,0,10.74-1.52,15.07-4.52,4.78-3.31,7.69-8.88,7.97-15.27.2-4.57-1.52-9-4.84-12.47-1.54-1.61-3.28-2.9-5.15-3.84-.43-2.3-1.25-5.37-3.07-8.4-3.26-5.42-8.68-8.99-15.28-10.06-.07-.01-.14-.02-.22-.03,2.07-.92,4.14-2.1,6.22-3.55,9.3,6.66,19.02,10.02,29.02,10.02,10.58,0,21.11-3.76,32.08-11.47,9.78,7.33,21.74,11.33,34.12,11.33,11.39,0,22.48-3.31,32.09-9.59.14-.08.29-.16.44-.24,1.93-1.04,5.16-2.78,7.9-6.18,4.73-5.86,5.51-13.83,2.03-20.8Z"/>
    <g>
      <g>
        <path class="cls-3" d="m259.93,113.87c-11.15-.09-20.91-3.96-29.01-11.72-2.88-2.76-4.75-3.42-8.17-.53-18.65,15.76-37.8,16.94-53.56.55-2.49-2.59-4.17-2-6.76.35-12.7,11.54-18.14,10.55-26.58-4.35-4.31-7.62-6.33-7.97-11.9-1.29-6.81,8.17-13.38,16.28-25.33,16.28-16.67,0-27.21-14.23-22.46-30.71,4.77-16.54,24.72-29.07,45.04-28.15,3.53.16,7.11.54,10.53,1.41,3.82.97,6.19,3.5,5.42,7.99-.69,4.01-3.35,5.86-6.98,5.6-5.43-.38-10.83-1.19-16.21-2.06-5.96-.96-11.45.06-16.29,3.75-7.17,5.48-8.49,15.19-3.17,22.25,5.07,6.72,15.37,8.01,22.02,2.48,4.27-3.55,7.15-8.3,10.05-13.09,5.17-8.56,12.02-8.18,16.92.49,2.78,4.92,3.79,12.62,10.56,12.59,7.37-.03,8.23-8.19,10.44-13.45,7.36-17.52,19.89-26.84,38.58-27.16,3.91-.07,8.99-.65,9.24,5.5.26,6.08-4.07,7.15-8.88,7.16-1.64,0-3.28-.05-4.92.05-11.13.66-16.99,6.04-17.4,15.94-.41,9.8,6.67,18.45,16.49,19.66,9.43,1.16,17.43-1.75,22.57-10.29,2.99-4.97,5.39-10.32,7.85-15.6,8.06-17.29,26.54-25.9,44.57-20.51,6.78,2.03,11.75,6.08,12.22,13.93.5,8.19-3.02,14.09-10.48,17.12-6.44,2.62-13.33,2.77-20.17,2.69-2.66-.03-5.04-.82-5.07-4.13-.03-3.54,2.2-4.81,5.35-4.86,2.19-.04,4.39.05,6.55-.21,4.24-.51,7.26-2.76,7.73-7.29.5-4.76-2.54-6.99-6.56-8.23-8.37-2.58-16.64,1.13-19.79,8.88-4,9.87-.65,21.6,7.96,26.39,8.46,4.72,17.31,4.38,26.11.77,1.77-.72,3.42-1.74,5.14-2.6,2.06-1.03,4.32-1.83,5.81.6,1.55,2.53-.34,4.08-2.19,5.45-7.54,5.57-15.92,8.5-25.28,8.37Z"/>
        <path class="cls-3" d="m56.64,16.11c9.78-.43,17.31.39,24.48,3.55,4.54,2,7.44,5.11,5.3,10.4-2.05,5.06-6.1,4.94-10.28,2.98-11.11-5.18-22.59-3.41-33.78-1.13-10.43,2.12-17.41,23.01-11.17,31.43,1.64,2.22,3.93,1.75,6,1.41,6.46-1.05,12.87-2.36,19.31-3.51,2.4-.43,4.84-.97,7.26-.96,4.18.02,6.77,2.37,6.78,6.69,0,4.01-2.54,6.01-6.33,6.18-7.35.34-14.71.7-22.07.8-11.41.15-11.56.12-8.88,11.88,1.73,7.59,3.97,15.05,5.83,22.61.72,2.95,1.25,6,1.44,9.03.3,4.68-2.41,7.07-6.63,8.1-4.53,1.11-7.9-.76-8.99-5.01-6.85-26.8-12.03-53.82-6.78-81.64,2.22-11.76,10.02-18.08,21.12-20.57,6.41-1.44,12.84-2.69,17.39-2.24Z"/>
      </g>
      <g>
        <path class="cls-3" d="m616.16,54.26c3.95.46,8.45-.1,12.69,1.75,3.52,1.54,5.27,3.92,4.54,7.84-.66,3.59-3.03,5.35-6.44,5.28-3.86-.09-7.73-.55-11.56-1.12-5.8-.86-11.63-1.92-17.3.28-6.77,2.63-11.06,7.41-11.24,15-.15,6.45,2.79,11.38,8.56,14.12,6.67,3.16,13.03,2.25,18.43-3.03,3.39-3.32,6.03-7.2,8.51-11.27,5.62-9.23,12.34-9.1,17.58.03,2.82,4.92,3.96,12.6,10.81,12.46,7.33-.15,8.36-8.24,10.58-13.53,6.67-15.84,18.13-24.89,35.12-26.93,2.45-.29,5.01-.26,7.46.07,3.55.47,6.53,1.82,6.06,6.32-.43,4.03-2.96,5.79-6.71,6.05-3.05.21-6.13-.02-9.16.32-9.65,1.06-14.79,5.76-15.83,14.18-1.05,8.6,3.83,16.69,11.96,19.84,9.95,3.85,21.33.61,27.23-8.4,3.32-5.08,5.82-10.72,8.46-16.22,8.12-16.9,26.52-25.44,44.62-20.46,7.23,1.99,12.55,5.97,13.13,14.2.56,7.94-3.67,14.48-11.6,17.33-6.37,2.29-13.09,2.31-19.78,2.17-2.85-.06-4.99-.99-4.96-4.24.03-3.04,1.97-4.47,4.8-4.69,2.49-.19,5.02,0,7.49-.28,4.37-.5,7.31-2.94,7.68-7.41.4-4.79-2.98-6.89-6.97-8.02-8.26-2.34-16.44,1.26-19.65,8.5-4.29,9.68-1.06,21.58,7.48,26.47,8.26,4.73,16.98,4.59,25.76,1.51,1.56-.55,2.98-1.5,4.52-2.12,2.65-1.06,5.87-4.06,7.89,0,1.95,3.92-2.38,5.08-4.69,6.6-15.59,10.24-36.17,9.42-50.35-2.98-5.34-4.67-8.2-4.61-13.73-.36-14.75,11.32-31.33,17.01-50.94-1.11-3.25-3-5.15-2.28-8.16.62-11.01,10.6-18.4,9.21-26.09-4.4-4.83-8.54-6.55-8.78-13-1.17-6.56,7.74-13.04,15.2-24.44,15.41-17.51.32-28.43-13.8-23.46-30.7,4.67-15.89,23.74-27.93,44.7-27.92Z"/>
        <path class="cls-3" d="m510.34,62.16c0-3.05-.16-6.11.02-9.15,1.55-26.14,11.11-35.48,37.4-36.7,9.45-.44,18.83-.58,27.84,3.2,4.93,2.07,8.44,4.94,6.16,10.68-2.27,5.71-6.73,4.45-11.17,2.68-11.65-4.63-23.57-3.35-35.14-.31-9.41,2.47-15.63,23.41-9.83,30.76,1.68,2.13,4.07,1.61,6.17,1.28,7.39-1.17,14.73-2.6,22.1-3.85,5.12-.87,10.8-1.64,11.59,5.45.74,6.71-4.81,7.16-9.66,7.31-7.76.25-15.55.53-23.3.27-6.43-.22-6.86,3.37-5.71,7.98,2.47,9.95,5.43,19.79,7.7,29.78,1.01,4.42,2.37,9.46-3.04,12.63-5.95,3.47-10.79,1.34-12.95-6.23-5.21-18.22-7.54-36.89-8.17-55.78Z"/>
      </g>
      <g>
        <path class="cls-1" d="m513.73,152.62c-.34-1.27,1.3-1.25,1.79-1.3s6.43-.34,5.97-5.31c-.24-2.62-2.66-3.57-4.9-3.65-4.01-.14-7.03,1.87-8.2,5.72-1.83,6.01.76,10.39,6.2,12.8,6.18,2.74,11.59,1.08,14.93-4.8,1.59-2.79,2.02-6.27,2.79-9.47.99-4.12,3-7.18,7.57-7.61,4.29-.4,6.61,2.21,8.2,5.77.45,1,1.22,2.62,1.69,3.62,1.21,2.56,1.8,6.05,4.97,6.17,3.4.13,4.29-3.85,5.82-6.36,2.69-4.42,5.64-6.7,11.53-5.4,5.43,1.2,10.32-1.31,12.2-7.25.9-2.84,2.04-5.66,5.37-5.17,3.34.49,1.54,3.38,1.54,5.41,0,3.24,2.4,3.07,4.69,3.13,2.35.07,6.76-1.16,9.55-.4.73.2.88,1.53.28,1.88-6.03,3.82-19.27-2.13-16.05,12.37,1.36,6.12,6.41,9.42,12.05,6.8.6-.28,2.56-1.48,2.28.68-6.05,7.32-18.67,3.08-20.88-5.24-.56-2.11-.53-4.39-.78-6.58-.31-2.68-1.79-3.92-4.51-3.59-3.27.4-2.93,2.55-2.49,4.91.66,3.52,1.26,7.05,1.65,10.61.21,1.91.12,4.14-2.44,4.55-2.6.42-3.24-1.48-3.5-3.57-.03-.27-.04-.56-.13-.82-1.18-3.48-.3-8.74-5.19-9.38-4.6-.59-5.74,4.47-8.02,7.4-1.82,2.34-2.81,6.08-6.33,5.89-3.59-.19-4.12-4-5.42-6.66-.85-1.74-1.46-3.6-2.4-5.28-2.82-5-5.89-5.51-9.18-.35-10.07,15.81-13.87,17.05-29.64,8.47-3.67-2-5.66-.3-8.12,1.36-5.88,3.98-12.15,5.31-18.88,2.55-7.87-3.23-10.73-10.77-7.12-18.42,3.33-7.06,15.27-12.67,20.97-9.74.84.43,1.84,1.57,1.83,2.37,0,.79-1.05,1.9-1.9,2.29-1.21.55-2.66.74-4.02.77-5.33.11-9.25,2.17-10.14,7.77-.73,4.6,1.41,8.2,5.43,10.3,5.31,2.78,10.46,1.71,14.38-2.52,2.37-2.56,3.73-6.09,5.43-9.24,4.06-7.54,10.47-10.29,18.71-9.22,4.18.54,7.54,2.21,7.49,7.19-.05,4.77-2.85,6.97-7.34,7.25-2.39.15-7.4.56-7.74-.71Z"/>
        <path class="cls-1" d="m173.85,157.1c-.73-1.81,1.29-2.64,1.46-2.8,2.33-2.05,8.48-.64,6.62-6.3-1.08-3.28-4.77-3.55-7.89-2.49-4.55,1.56-6.72,4.83-5.5,9.68.98,3.9,4.21,5.7,7.64,6.98,8.81,3.27,18.43.01,23.59-8.55,5.52-9.16,13.56-12.56,23.78-11.73,1.74.14,4.46-.03,4.38,2.66-.09,2.82-2.72,2.15-4.51,2.16-3.02.02-6.09-.48-9.07-.16-3.58.39-6.16,2.53-6.85,6.24-.52,2.78,1.02,4.76,3.22,6.23,3.14,2.1,6.29,2.07,9.15-.45,1.65-1.45,3.08-3.17,4.5-4.86,2.75-3.25,5.06-3.43,8.04.07,5.88,6.9,9.12,6.34,11.78-2.67,1.66-5.62,4.14-8.23,10.08-8.69,12.35-.96,12.41-1.15,14.51,11.05.47,2.71.65,5.95,4.13,6.38,3.01.37,5.14-1.65,6.58-4.23.4-.72.69-1.5,1.02-2.27,1.99-4.72,2.69-10.51,9.63-10.95,7.16-.46,9.21,5.03,11.71,9.93,3.13,6.13,5.9,5.17,9.33.1,2.71-3.99,5.5-9.43,11.65-6.8,6.65,2.84,6.61,9.6,7.17,15.65.16,1.69-.31,3.39-2.46,3.64-1.98.23-3.09-.91-3.61-2.67-.47-1.59-.7-3.26-1.27-4.81-2.15-5.89-5.52-6.39-9.87-2.08-.2.19-.37.41-.56.61q-9.97,10.35-17.66-1.13c-3.93-5.88-7.11-5.71-10.99.61-1.58,2.56-2.07,5.82-4.74,7.67-4.26,2.95-9.06,2.67-13.56,1.24-4.26-1.35-3.67-5.72-4.09-9.2-.43-3.55-.07-7.58-4.9-8.41-4.39-.75-6.32,2.28-8.23,5.55-1.66,2.84-3.53,5.68-5.82,8.01-4,4.08-8.53,5.67-12.48-.06-2.68-3.89-4.9-3.43-7.84-.35-5.94,6.21-12.51,7.96-19.66,1.84-2.94-2.51-5.17-.24-7.48,1-7.68,4.14-15.64,5.02-24.07,2.7-4.72-1.3-8.02-3.88-8.87-8.76-.91-5.25,1.77-9.16,5.86-11.94,4.55-3.09,9.73-3.65,15.13-2.72,3.54.61,6.59,1.88,6.99,5.86.44,4.24-2.12,6.69-5.95,7.83-2.89.86-9.3,3.19-10.04,1.38Z"/>
        <path class="cls-1" d="m430.65,176.6c6.82.54,12.67-3.7,12.79-11.25.03-1.64.22-3.51-1.32-4.54-1.81-1.21-3.06.39-4.27,1.43-5.54,4.73-11.52,5.42-17.38,1.06-2.72-2.02-4.28-.91-6.57.3-6.78,3.59-11.88,2.29-15.57-5.03-3.83-7.61-6.26-7.53-11.72-.57-7.6,9.68-9.69,9.55-16.31-1.09-5.21-8.38-7.88-8.41-13.52-.16-1.25,1.82-2.31,3.87-3.9,5.33-4.2,3.86-9.02,4.12-13.6.89-2.67-1.88-3.08-15.32-.93-17.37,1.1-1.05,2.45-1.3,3.81-.79,1.78.67,2.09,2.29,2.43,3.99.77,3.75-2.07,9.52,3.49,10.69,5.98,1.25,6.92-5.29,9.46-8.87,7.19-10.14,12.46-10.11,18.73.44,4.41,7.41,5.95,7.47,11.78.41,7.35-8.88,11.97-8.26,16.51,2.15,1.28,2.94,1.81,6.8,6.08,6.97,4.01.16,5.45-3.23,7.27-5.96,6.39-9.6,15.8-13.49,23.77-9.62,1.76.85,4.85,1.61,3.45,4.53-.99,2.07-3.39,1.41-5.18.54-3.09-1.49-6.32-2.39-9.62-1.43-4.18,1.21-7.1,4.01-5.26,8.58,1.62,4.02,5.06,5.84,9.48,3.7,1.47-.71,2.79-1.76,4.15-2.7,2.62-1.82,5.02-5.23,8.64-2.68,3.07,2.17,2.56,5.94,2.29,9.21-.89,10.77-16.81,19.65-26.81,15.06-1.01-.47-2.04-.97-1.95-2.28.09-1.46,1.31-1.68,2.4-1.66,1.65.04,3.3.31,7.37.73Z"/>
        <path class="cls-1" d="m617.18,152.95c.16-1.03.11-1.36.25-1.52,2.07-2.22,8.25-1.78,5.19-7.25-1.52-2.72-4.64-2.88-7.37-1.38-4.18,2.29-5.94,5.64-3.82,10.34,3.47,7.69,16.46,9.39,22.78,2.77,1.84-1.93,3.23-4.51,4.16-7.04,2.71-7.39,8.3-10.71,16.01-9.46,4.29.7,4.91,3.63,5.43,7.11.7,4.69-2.36,12.65,7.9,9.76.4-.11,1.61.93,1.59,1.4-.04.97-.38,2.32-1.09,2.81-3.17,2.19-6.83,1.78-10.37,1.28-3.56-.51-3.86-3.43-4.16-6.25-.15-1.37-.35-2.74-.53-4.11-.38-3.01-.33-6.41-4.23-7.18-4.13-.83-5.75,2.22-7.44,5.21-6.99,12.34-15.36,16.43-27,13.23-4.87-1.34-8.58-3.93-9.01-9.48-.45-5.85,1.94-10.33,7.23-12.8,4.92-2.31,10.15-3.07,14.95.31,2.52,1.77,3.16,4.68,1.75,7.42-2.49,4.83-6.64,6.19-12.23,4.83Z"/>
        <path class="cls-1" d="m159.25,162.65c-.12-.83-.45-1.4-.98-1.7-1.04-.6-2.59,0-4.09.6-.88.35-1.79.7-2.48.77-6.05.52-9.7-.16-11.85-2.23-2.16-2.07-3-5.71-2.73-11.78.19-4.17,1.3-8.2,2.37-12.09.22-.8.44-1.6.65-2.4l.04-.14c.46-1.71,1.14-4.3-1.83-5.2-1.11-.33-2.05-.27-2.78.2-.85.54-1.4,1.6-1.62,3.15-.27,1.89-.62,3.83-.96,5.69-.79,4.33-1.6,8.81-1.53,13.21.2,12.57,4.1,16.23,17.38,16.32h.01c.3,0,.58,0,.86,0,.22,0,.44.01.67.01.33,0,.67-.01,1.01-.06.54-.08,1.15-.12,1.78-.17,2.09-.16,4.47-.34,5.56-1.71.51-.64.69-1.48.54-2.49Z"/>
        <path class="cls-1" d="m347.52,133.12c-.03,2.88-2.09,4.88-4.97,4.83-2.82-.05-4.91-2.23-4.83-5.03.08-2.66,2.21-4.71,4.9-4.72,2.85-.01,4.92,2.07,4.9,4.93Z"/>
      </g>
      <g>
        <path class="cls-1" d="m465.7,73.48c-.09-.39-.19-.79-.3-1.18-.07-.3-.16-.58-.26-.88-.09-.33-.19-.67-.3-.98-.18-.6-.39-1.16-.6-1.74-.25-.68-.53-1.35-.81-2.04-6.79-15.72-22.5-26.87-40.92-27.31-11.88.09-24.13,4.9-34.03,15.11-1.25,1.28-2.58,2.37-3.93,3.21-.05.07-.11.14-.14.21-5.46,7.35-8.65,16.43-8.65,26.2,0,7.6,1.93,14.76,5.35,21.02.02.05.04.11.07.16,2.44,4.46,5.63,8.46,9.42,11.85.56.51,1.16,1,1.74,1.47l.02.02c1.79.77,3.54,1.75,5.37,2.93,4.9,3.12,9.86,5.28,14.9,6.48,2.83.54,5.76.82,8.76.82,20.27,0,37.45-12.97,43.38-30.9,1.26-4.26,1.91-8.88,2-13.81-.14-3.62-.26-7.14-1.07-10.65Zm-29.96,38.87c-10.92,5.19-21.69,4.44-31.38-2.4-1.51-.93-2.95-2-4.26-3.16-.02-.02-.02-.04-.04-.05-.23-.18-.44-.39-.65-.6-5.93-5.56-9.62-13.39-9.62-22.04,0-5.39,1.44-10.44,3.93-14.85,2.61-4.6,6.41-8.48,10.99-11.21.79-.51,1.6-.95,2.44-1.35.88-1.67,3.72-1.97,5.51-2.56,19.94-6.91,41.03,8.81,40.82,32.85-.44,10.23-6.19,19.87-17.74,25.38Z"/>
        <path class="cls-3" d="m439.07,84.21c-.09,10.02-7.27,17-17.31,16.82-9.81-.17-17.09-7.76-16.81-17.53.26-9.25,7.69-16.41,17.07-16.44,9.94-.04,17.14,7.21,17.05,17.15Z"/>
        <path class="cls-3" d="m403.94,55.21c-6.24-.78-18.88.79-31.8,2.96-2.03.34-3.64-1.69-2.85-3.59.96-2.32,1.89-4.34,2.68-5.92,1.49-2.98.67-6.78-2.21-8.45-3.07-1.78-6.97-.6-8.56,2.52-.74,1.44-3.37,6.81-5.93,14.05-1.05,2.97-3.6,5.19-6.69,5.82-7.67,1.57-13.48,2.87-15.2,3.25-3.31.75-5.39,4.04-4.64,7.34.64,2.85,3.18,4.79,5.99,4.79.45,0,.9-.05,1.36-.15,2.66-.6,5.54-1.23,8.55-1.87,2.84-.61,5.47,1.69,5.25,4.59-.64,8.78.58,17.52,5.5,24.35,5.65,7.83,15.03,11.77,27.97,11.77,3.56,0,7.4-.3,11.5-.9,3.35-.49,6.02-3.45,5.65-6.81-.39-3.49-3.57-5.92-7.02-5.4-14.3,2.16-23.77.19-28.13-5.84-3.62-5.02-3.94-12.65-2.72-20.56.46-2.97,2.76-5.34,5.72-5.87,14.84-2.66,28.64-4.57,34.05-3.89,3.35.41,6.44-1.97,6.86-5.33.42-3.37-1.97-6.44-5.33-6.86Z"/>
      </g>
    </g>
  </g>
</svg>