<?xml version="1.0" encoding="UTF-8"?>
<svg id="Layer_2" data-name="Layer 2" xmlns="http://www.w3.org/2000/svg" viewBox="0 0 91.01 89.48">
  <defs>
    <style>
      .cls-1 {
        fill: #ff151f;
      }

      .cls-2 {
        fill: #fff;
      }

      .cls-3 {
        fill: #1d2269;
      }
    </style>
  </defs>
  <g id="Layer_1-2" data-name="Layer 1">
    <path class="cls-3" d="m63.31,44.84c-.09,10.02-7.27,17-17.31,16.82-9.81-.17-17.09-7.76-16.81-17.53.26-9.25,7.69-16.41,17.07-16.44,9.94-.04,17.14,7.21,17.05,17.15Z"/>
    <path class="cls-1" d="m89.94,34.11c-.09-.38-.19-.79-.3-1.17-.07-.3-.16-.58-.26-.88-.09-.33-.19-.67-.3-.98-.17-.6-.38-1.16-.6-1.74-.24-.68-.52-1.35-.8-2.03C80.89,11.58,65.18.44,46.75,0c-11.88.09-24.13,4.9-34.02,15.11-1.25,1.28-2.58,2.37-3.93,3.21-.06.07-.11.14-.15.21C3.2,25.88,0,34.96,0,44.73c0,7.6,1.93,14.76,5.36,21.02.01.06.03.11.07.16,2.43,4.46,5.63,8.46,9.42,11.85.56.51,1.16,1,1.74,1.47v.02c1.8.77,3.56,1.75,5.38,2.93,4.9,3.12,9.87,5.28,14.9,6.48,2.83.54,5.76.82,8.76.82,20.27,0,37.45-12.97,43.38-30.9,1.26-4.27,1.91-8.88,2-13.81-.14-3.62-.26-7.15-1.07-10.66Zm-29.95,38.87c-10.92,5.2-21.7,4.44-31.38-2.4-1.51-.93-2.95-2-4.27-3.16-.01-.02-.01-.03-.03-.05-.23-.18-.44-.39-.65-.6-5.93-5.56-9.62-13.39-9.62-22.04,0-5.39,1.44-10.44,3.93-14.85,2.62-4.59,6.41-8.47,10.99-11.21.79-.51,1.6-.95,2.44-1.35.88-1.67,3.72-1.97,5.51-2.56,19.93-6.92,41.03,8.81,40.82,32.85-.44,10.23-6.2,19.86-17.74,25.37Z"/>
    <path class="cls-2" d="m36.91,14.76c-1.79.59-4.63.89-5.51,2.56-.84.4-1.65.84-2.44,1.35-4.58,2.74-8.37,6.62-10.99,11.21-2.49,4.41-3.93,9.46-3.93,14.85,0,8.65,3.69,16.48,9.62,22.04.21.21.42.42.65.6.02.02.02.03.03.05,1.32,1.16,2.76,2.23,4.27,3.16,9.68,6.84,20.46,7.6,31.38,2.4,11.54-5.51,17.3-15.14,17.74-25.37.21-24.04-20.89-39.77-40.82-32.85Zm9.09,46.9c-9.81-.17-17.09-7.76-16.81-17.53.26-9.25,7.69-16.41,17.07-16.44,9.94-.04,17.14,7.21,17.05,17.15-.09,10.02-7.27,17-17.31,16.82Z"/>
  </g>
</svg>